{
  "asset": {
    "version": "2.0",
    "generator": "THREE.GLTFExporter"
  },
  "scenes": [
    {
      "nodes": [
        0
      ]
    }
  ],
  "scene": 0,
  "nodes": [
    {
      "children": [
        9
      ],
      "matrix": [
        0.01,
        0,
        0,
        0,
        0,
        0.01,
        0,
        0,
        0,
        0,
        0.01,
        0,
        0,
        0,
        0,
        1
      ]
    },
    {
      "matrix": [
        0.483147540470619,
        -0.40857445762619765,
        -0.7743612636958606,
        0,
        0.6457186938130142,
        0.7635753849230702,
        0,
        0,
        0.5912831999960818,
        -0.5000195437330861,
        0.6327437342932366,
        0,
        0,
        0,
        0,
        1
      ],
      "name": "Directional Light",
      "extensions": {
        "KHR_lights_punctual": {
          "light": 0
        }
      }
    },
    {
      "matrix": [
        0.9999999999999808,
        3.870492493070201e-17,
        -4.423993163323764e-16,
        0,
        -4.423993163323868e-16,
        2.220446049250322e-16,
        -1.0000000000000042,
        0,
        -3.870492493070286e-17,
        1.0000000000000044,
        2.220446049250323e-16,
        0,
        163.5000000000002,
        -74.28523059692392,
        129.99999999999957,
        1
      ],
      "name": "ground",
      "mesh": 0
    },
    {
      "matrix": [
        1,
        0,
        0,
        0,
        0,
        2.220446049250703e-16,
        -1.000000000000176,
        0,
        0,
        1.000000000000176,
        2.220446049250703e-16,
        0,
        -5.684341886080802e-14,
        41.664718397633855,
        3.597082198159228,
        1
      ],
      "name": "Text-control",
      "mesh": 1
    },
    {
      "matrix": [
        1,
        0,
        0,
        0,
        0,
        1,
        0,
        0,
        0,
        0,
        1,
        0,
        -0.9341745285153138,
        -1.9853630065917969,
        0,
        1
      ],
      "name": "key-base",
      "mesh": 2
    },
    {
      "matrix": [
        1,
        0,
        0,
        0,
        0,
        1,
        0,
        0,
        0,
        0,
        1,
        0,
        -129.8439899147274,
        185,
        -284.6532704737913,
        1
      ],
      "name": "Key Instance 40",
      "children": [
        3,
        4
      ]
    },
    {
      "matrix": [
        0.9999999999999999,
        0,
        0,
        0,
        0,
        0.8647016814819201,
        0,
        0,
        0,
        0,
        1.0072283663560224,
        0,
        25.268594542348865,
        51.41196685633915,
        157.71540190762454,
        1
      ],
      "name": "keyboard",
      "children": [
        5
      ]
    },
    {
      "matrix": [
        0.9838929342037268,
        -1.0849440498783558e-8,
        0.1787587592930225,
        0,
        0.16649245366865761,
        0.36404681163850616,
        -0.9163788418592106,
        0,
        -0.06507654643088234,
        0.931380652008532,
        0.35818308749687133,
        0,
        -58.7291299173288,
        840.5716916809201,
        323.2598744039503,
        1
      ],
      "camera": 0
    },
    {
      "matrix": [
        1,
        0,
        0,
        0,
        0,
        1,
        0,
        0,
        0,
        0,
        1,
        0,
        0,
        1,
        0,
        1
      ],
      "name": "Default Ambient Light"
    },
    {
      "name": "Scene",
      "children": [
        1,
        2,
        6,
        7,
        8
      ]
    }
  ],
  "extensions": {
    "KHR_lights_punctual": {
      "lights": [
        {
          "name": "Directional Light",
          "color": [
            1,
            1,
            1
          ],
          "intensity": 0.7,
          "type": "directional"
        }
      ]
    }
  },
  "bufferViews": [
    {
      "buffer": 0,
      "byteOffset": 0,
      "byteLength": 48,
      "target": 34962,
      "byteStride": 12
    },
    {
      "buffer": 0,
      "byteOffset": 48,
      "byteLength": 48,
      "target": 34962,
      "byteStride": 12
    },
    {
      "buffer": 0,
      "byteOffset": 96,
      "byteLength": 32,
      "target": 34962,
      "byteStride": 8
    },
    {
      "buffer": 0,
      "byteOffset": 128,
      "byteLength": 24,
      "target": 34963
    },
    {
      "buffer": 0,
      "byteOffset": 152,
      "byteLength": 1800,
      "target": 34962,
      "byteStride": 12
    },
    {
      "buffer": 0,
      "byteOffset": 1952,
      "byteLength": 1800,
      "target": 34962,
      "byteStride": 12
    },
    {
      "buffer": 0,
      "byteOffset": 3752,
      "byteLength": 1200,
      "target": 34962,
      "byteStride": 8
    },
    {
      "buffer": 0,
      "byteOffset": 4952,
      "byteLength": 852,
      "target": 34963
    },
    {
      "buffer": 0,
      "byteOffset": 5804,
      "byteLength": 69120,
      "target": 34962,
      "byteStride": 12
    },
    {
      "buffer": 0,
      "byteOffset": 74924,
      "byteLength": 69120,
      "target": 34962,
      "byteStride": 12
    },
    {
      "buffer": 0,
      "byteOffset": 144044,
      "byteLength": 34560,
      "target": 34963
    }
  ],
  "buffers": [
    {
      "byteLength": 178604,
      "uri": "data:application/octet-stream;base64,"
    }
  ],
  "accessors": [
    {
      "bufferView": 0,
      "componentType": 5126,
      "count": 4,
      "max": [
        1960.3094482421875,
        2993.006591796875,
        0
      ],
      "min": [
        -1960.3094482421875,
        -2993.006591796875,
        0
      ],
      "type": "VEC3"
    },
    {
      "bufferView": 1,
      "componentType": 5126,
      "count": 4,
      "max": [
        0,
        0,
        1
      ],
      "min": [
        0,
        0,
        1
      ],
      "type": "VEC3"
    },
    {
      "bufferView": 2,
      "componentType": 5126,
      "count": 4,
      "max": [
        1,
        1
      ],
      "min": [
        0,
        0
      ],
      "type": "VEC2"
    },
    {
      "bufferView": 3,
      "componentType": 5125,
      "count": 6,
      "max": [
        3
      ],
      "min": [
        0
      ],
      "type": "SCALAR"
    },
    {
      "bufferView": 4,
      "componentType": 5126,
      "count": 150,
      "max": [
        36.380863189697266,
        8.859373092651367,
        0
      ],
      "min": [
        -35.361328125,
        -8.203126907348633,
        0
      ],
      "type": "VEC3"
    },
    {
      "bufferView": 5,
      "componentType": 5126,
      "count": 150,
      "max": [
        0,
        0,
        1
      ],
      "min": [
        0,
        0,
        1
      ],
      "type": "VEC3"
    },
    {
      "bufferView": 6,
      "componentType": 5126,
      "count": 150,
      "max": [
        1,
        1
      ],
      "min": [
        0,
        0
      ],
      "type": "VEC2"
    },
    {
      "bufferView": 7,
      "componentType": 5123,
      "count": 426,
      "max": [
        149
      ],
      "min": [
        0
      ],
      "type": "SCALAR"
    },
    {
      "bufferView": 8,
      "componentType": 5126,
      "count": 5760,
      "max": [
        60.894378662109375,
        43.374244689941406,
        60.894378662109375
      ],
      "min": [
        -60.894378662109375,
        -40.673248291015625,
        -60.894378662109375
      ],
      "type": "VEC3"
    },
    {
      "bufferView": 9,
      "componentType": 5126,
      "count": 5760,
      "max": [
        0.9990501403808594,
        1,
        0.9984253644943237
      ],
      "min": [
        -0.9990501403808594,
        -1,
        -0.9984253644943237
      ],
      "type": "VEC3"
    },
    {
      "bufferView": 10,
      "componentType": 5125,
      "count": 8640,
      "max": [
        5759
      ],
      "min": [
        0
      ],
      "type": "SCALAR"
    }
  ],
  "meshes": [
    {
      "primitives": [
        {
          "mode": 4,
          "attributes": {
            "POSITION": 0,
            "NORMAL": 1,
            "TEXCOORD_0": 2
          },
          "extras": {
            "shape": {
              "points": [
                -1960.3094371889588,
                2993.0065627256377,
                -1960.3094371889588,
                2993.0065627256377,
                -1960.3094371889588,
                2993.0065627256377,
                0,
                1960.3094371889588,
                2993.0065627256377,
                1960.3094371889588,
                2993.0065627256377,
                1960.3094371889588,
                2993.0065627256377,
                0,
                1960.3094371889588,
                -2993.0065627256377,
                1960.3094371889588,
                -2993.0065627256377,
                1960.3094371889588,
                -2993.0065627256377,
                0,
                -1960.3094371889588,
                -2993.0065627256377,
                -1960.3094371889588,
                -2993.0065627256377,
                -1960.3094371889588,
                -2993.0065627256377,
                0
              ],
              "shapeHoles": [],
              "isClosed": true,
              "roundness": 0
            },
            "parameters": {
              "width": 3920.6188743779176,
              "depth": 0,
              "cornerRadius": [
                0,
                0,
                0,
                0
              ],
              "cornerType": 1,
              "extrudeBevelSize": 0,
              "extrudeBevelSegments": 1,
              "height": 5986.013125451275,
              "type": "RectangleGeometry"
            },
            "ui": {
              "enabledIndieCorners": false
            },
            "type": "RectangleGeometry"
          },
          "indices": 3
        }
      ]
    },
    {
      "primitives": [
        {
          "mode": 4,
          "attributes": {
            "POSITION": 4,
            "NORMAL": 5,
            "TEXCOORD_0": 6
          },
          "extras": {
            "parameters": {
              "type": "TextGeometry",
              "width": 134.543313909243,
              "height": 96.82746570332891,
              "depth": 0,
              "horizontalAlign": 3,
              "verticalAlign": 2,
              "fontSize": 24,
              "lineHeight": 1.2,
              "letterSpacing": 0,
              "text": "ENTER",
              "textTransform": 1,
              "font": "Roboto_700",
              "extrudeBevelSize": 0,
              "extrudeBevelSegments": 1
            },
            "type": "TextGeometry"
          },
          "indices": 7
        }
      ]
    },
    {
      "primitives": [
        {
          "mode": 4,
          "attributes": {
            "POSITION": 8,
            "NORMAL": 9
          },
          "extras": {
            "type": "SubdivGeometry",
            "parameters": {
              "width": 123.19287872314453,
              "height": 85.31722259521484,
              "depth": 123.19287872314453
            }
          },
          "indices": 10
        }
      ]
    }
  ],
  "cameras": [
    {
      "type": "perspective",
      "perspective": {
        "aspectRatio": 1.961297071129707,
        "yfov": 0.7853981633974483,
        "zfar": 100000,
        "znear": 5
      }
    }
  ],
  "extensionsUsed": [
    "KHR_lights_punctual"
  ]
}